<svg width="17" height="17" viewBox="0 0 17 17" fill="none" xmlns="http://www.w3.org/2000/svg">
<g id="Group 1">
<path id="Vector" d="M4.95887 3.81606C4.93991 4.04147 4.61191 4.09847 4.50642 3.89468L3.93834 2.79755C3.9016 2.72646 3.82675 2.67895 3.74209 2.6728L2.43485 2.57797C2.192 2.56037 2.13061 2.25589 2.35016 2.15794L3.53196 1.63061C3.60849 1.59645 3.65977 1.52703 3.66632 1.44842L3.76849 0.234818C3.78745 0.00940723 4.11545 -0.0475868 4.22095 0.156199L4.78902 1.25334C4.82576 1.32443 4.90052 1.37195 4.98527 1.37808L6.29252 1.47291C6.53536 1.49051 6.59675 1.79499 6.3772 1.89294L5.1954 2.42027C5.11878 2.45445 5.06759 2.52385 5.06104 2.60247L4.95887 3.81606Z" fill="black"/>
<path id="Vector_2" d="M1.20605 4.6442C1.1744 4.75336 1.00755 4.75336 0.975898 4.6442L0.805428 4.05649C0.794416 4.01841 0.762334 3.98867 0.721337 3.97842L0.0882697 3.82018C-0.0293341 3.79079 -0.0293341 3.63591 0.0882697 3.60652L0.721337 3.44828C0.762334 3.43802 0.794416 3.40828 0.805428 3.37021L0.975898 2.78249C1.00755 2.67333 1.1744 2.67333 1.20605 2.78249L1.37652 3.37021C1.38754 3.40828 1.41957 3.43802 1.46061 3.44828L2.09368 3.60652C2.21129 3.63591 2.21129 3.79079 2.09368 3.82018L1.46061 3.97842C1.41957 3.98867 1.38754 4.01841 1.37652 4.05649L1.20605 4.6442Z" fill="black"/>
<path id="Vector_3" d="M3.38769 8.01993C3.35604 8.1291 3.18919 8.1291 3.15754 8.01993L2.98707 7.43222C2.97606 7.39414 2.94397 7.3644 2.90298 7.35415L2.26991 7.19591C2.15231 7.16652 2.15231 7.01164 2.26991 6.98225L2.90298 6.82401C2.94397 6.81375 2.97606 6.78402 2.98707 6.74594L3.15754 6.15822C3.18919 6.04906 3.35604 6.04906 3.38769 6.15822L3.55816 6.74594C3.56918 6.78402 3.60121 6.81375 3.64225 6.82401L4.27532 6.98225C4.39293 7.01164 4.39293 7.16652 4.27532 7.19591L3.64225 7.35415C3.60121 7.3644 3.56918 7.39414 3.55816 7.43222L3.38769 8.01993Z" fill="black"/>
<path id="Vector_4" d="M1.53133 6.69694C1.51023 6.76972 1.399 6.76972 1.37789 6.69694L1.26425 6.30513C1.25691 6.27975 1.23552 6.25992 1.20819 6.25309L0.786141 6.14759C0.707739 6.128 0.707739 6.02475 0.786141 6.00515L1.20819 5.89966C1.23552 5.89282 1.25691 5.873 1.26425 5.84761L1.37789 5.4558C1.399 5.38303 1.51023 5.38303 1.53133 5.4558L1.64498 5.84761C1.65232 5.873 1.67367 5.89282 1.70104 5.89966L2.12308 6.00515C2.20149 6.02475 2.20149 6.128 2.12308 6.14759L1.70104 6.25309C1.67367 6.25992 1.65232 6.27975 1.64498 6.30513L1.53133 6.69694Z" fill="black"/>
<path id="Vector_5" d="M6.62215 5.34666C6.60105 5.41944 6.48982 5.41944 6.46871 5.34666L6.35507 4.95485C6.34773 4.92947 6.32634 4.90964 6.29901 4.90281L5.87696 4.79731C5.79856 4.77772 5.79856 4.67447 5.87696 4.65487L6.29901 4.54938C6.32634 4.54254 6.34773 4.52272 6.35507 4.49733L6.46871 4.10552C6.48982 4.03275 6.60105 4.03275 6.62215 4.10552L6.7358 4.49733C6.74314 4.52272 6.7645 4.54254 6.79186 4.54938L7.2139 4.65487C7.29231 4.67447 7.29231 4.77772 7.2139 4.79731L6.79186 4.90281C6.7645 4.90964 6.74314 4.92947 6.7358 4.95485L6.62215 5.34666Z" fill="black"/>
<path id="Vector 1" d="M13.8182 13.503L13.0909 14.1782M3.65777 4.54228L15.4624 14.5877C15.7555 14.8371 15.7654 15.2629 15.4843 15.5239V15.5239C15.2043 15.7839 14.7496 15.7777 14.4805 15.508C10.4047 11.4231 3.22842 4.20747 3.65777 4.54228Z" stroke="black"/>
</g>
</svg>
